HIERARCHY
ROOT Hips
{
	OFFSET 0.000000 0.000000 0.000000
	CHANNELS 6 Xposition Yposition Zposition Xrotation Yrotation Zrotation
	JOINT LeftUpLeg_virtual
	{
		OFFSET 0.000000 0.000000 0.000000
		CHANNELS 3 Xrotation Yrotation Zrotation
		JOINT LeftUpLeg
		{
			OFFSET 10.205400 -3.823500 0.155100
			CHANNELS 3 Xrotation Yrotation Zrotation
			JOINT LeftLeg
			{
				OFFSET 0.708757 -12.982077 0.567790
				CHANNELS 3 Xrotation Yrotation Zrotation
				JOINT LeftFoot
				{
					OFFSET -0.708756 -10.717838 -2.184338
					CHANNELS 3 Xrotation Yrotation Zrotation
					JOINT LeftToeBase
					{
						OFFSET 0.108149 -7.191104 7.560241
						CHANNELS 3 Xrotation Yrotation Zrotation
						JOINT LeftToe_End
						{
							OFFSET 0.070230 0.081724 4.490308
							CHANNELS 3 Xrotation Yrotation Zrotation
							End Site
							{
								OFFSET 0 0 0
							}
						}
					}
				}
			}
		}
	}
	JOINT RightUpLeg_virtual
	{
		OFFSET 0.000000 0.000000 0.000000
		CHANNELS 3 Xrotation Yrotation Zrotation
		JOINT RightUpLeg
		{
			OFFSET -10.205400 -3.823500 0.005500
			CHANNELS 3 Xrotation Yrotation Zrotation
			JOINT RightLeg
			{
				OFFSET -0.708756 -12.982134 0.610632
				CHANNELS 3 Xrotation Yrotation Zrotation
				JOINT RightFoot
				{
					OFFSET 0.708754 -10.717769 -1.945823
					CHANNELS 3 Xrotation Yrotation Zrotation
					JOINT RightToeBase
					{
						OFFSET -0.108140 -7.191069 7.372968
						CHANNELS 3 Xrotation Yrotation Zrotation
						JOINT RightToe_End
						{
							OFFSET -0.070227 0.081735 4.479403
							CHANNELS 3 Xrotation Yrotation Zrotation
							End Site
							{
								OFFSET 0 0 0
							}
						}
					}
				}
			}
		}
	}
	JOINT Spine_virtual
	{
		OFFSET 0.000000 0.000000 0.000000
		CHANNELS 3 Xrotation Yrotation Zrotation
		JOINT Spine
		{
			OFFSET 0.000000 6.876099 0.125700
			CHANNELS 3 Xrotation Yrotation Zrotation
			JOINT Spine1
			{
				OFFSET 0.000000 5.730043 0.104720
				CHANNELS 3 Xrotation Yrotation Zrotation
				JOINT Spine1_split
				{
					OFFSET 0.000000 5.730043 0.104720
					CHANNELS 3 Xrotation Yrotation Zrotation
					JOINT Spine2
					{
						OFFSET 0.000000 5.730043 0.104720
						CHANNELS 3 Xrotation Yrotation Zrotation
						JOINT Neck_virtual
						{
							OFFSET 0.000000 0.000000 0.000000
							CHANNELS 3 Xrotation Yrotation Zrotation
							JOINT Neck
							{
								OFFSET 0.000000 10.314075 0.188496
								CHANNELS 3 Xrotation Yrotation Zrotation
								JOINT Head
								{
									OFFSET 0.000000 7.643700 -2.377400
									CHANNELS 3 Xrotation Yrotation Zrotation
									JOINT HeadTop_End
									{
										OFFSET 0.000000 43.788605 -13.619600
										CHANNELS 3 Xrotation Yrotation Zrotation
										End Site
										{
											OFFSET 0 0 0
										}
									}
								}
							}
						}
						JOINT LeftShoulder_virtual
						{
							OFFSET 0.000000 0.000000 0.000000
							CHANNELS 3 Xrotation Yrotation Zrotation
							JOINT LeftShoulder
							{
								OFFSET 2.196100 4.412489 0.087492
								CHANNELS 3 Xrotation Yrotation Zrotation
								JOINT LeftShoulder_split
								{
									OFFSET 2.196100 4.412489 0.087492
									CHANNELS 3 Xrotation Yrotation Zrotation
									JOINT LeftArm
									{
										OFFSET 8.771219 -2.981674 -0.026999
										CHANNELS 3 Xrotation Yrotation Zrotation
										JOINT LeftForeArm
										{
											OFFSET 8.512804 0.000000 -0.000000
											CHANNELS 3 Xrotation Yrotation Zrotation
											JOINT LeftHand
											{
												OFFSET 18.484802 0.000000 -0.000000
												CHANNELS 3 Xrotation Yrotation Zrotation
												End Site
												{
													OFFSET 0 0 0
												}
											}
										}
									}
								}
							}
						}
						JOINT RightShoulder_virtual
						{
							OFFSET 0.000000 0.000000 0.000000
							CHANNELS 3 Xrotation Yrotation Zrotation
							JOINT RightShoulder
							{
								OFFSET -2.196100 4.412496 0.070690
								CHANNELS 3 Xrotation Yrotation Zrotation
								JOINT RightShoulder_split
								{
									OFFSET -2.196100 4.412496 0.070690
									CHANNELS 3 Xrotation Yrotation Zrotation
									JOINT RightArm
									{
										OFFSET -8.771282 -2.981682 -0.094208
										CHANNELS 3 Xrotation Yrotation Zrotation
										JOINT RightForeArm
										{
											OFFSET -8.494598 0.000000 0.000000
											CHANNELS 3 Xrotation Yrotation Zrotation
											JOINT RightHand
											{
												OFFSET -18.483803 0.000000 0.000001
												CHANNELS 3 Xrotation Yrotation Zrotation
												End Site
												{
													OFFSET 0 0 0
												}
											}
										}
									}
								}
							}
						}
					}
				}
			}
		}
	}
}
MOTION
Frames: 4
Frame Time: 0.03333333
9.958008 29.939594 3.786875 0.000000 0.000000 0.000000 157.806016 -65.772645 164.771456 -46.448777 45.601092 50.606883 40.822716 -8.930183 -6.872615 -7.220703 11.893126 -7.030169 2.651963 5.376287 -11.424413 0.000000 0.000000 0.000000 159.308562 -65.802794 167.508395 -38.202682 -17.655477 -35.005000 40.013659 -0.605226 -0.607062 -25.933764 -6.912516 14.843130 1.413750 3.799394 1.477075 0.000000 0.000000 0.000000 151.816773 -68.902757 158.237246 10.682750 -2.775097 -0.503468 5.321546 -3.079129 -2.760730 0.248873 -1.375203 0.962469 0.000000 0.000000 0.000000 -1.935690 -4.898638 -1.855563 4.531130 14.500970 -2.440608 -14.861529 11.216308 -3.200587 0.000000 0.000000 0.000000 -1.950950 -5.436293 -1.647665 -1.198855 -9.701960 -5.792636 0.086314 0.401464 0.958231 -24.443060 -14.586052 -47.470310 -14.524075 -28.148296 -14.762240 0.000000 0.000000 0.000000 -3.675226 -5.683158 -1.896811 -5.585165 18.825326 3.660764 0.660129 -3.212045 0.098698 -11.816962 -10.973355 60.688334 10.494561 37.643888 -2.121190 0.000000 0.000000 0.000000 
9.841590 29.874731 3.468958 0.000000 0.000000 0.000000 157.884249 -63.724210 164.989148 -51.415294 43.363604 54.056972 43.041544 -11.511013 -6.294618 -2.914890 9.777131 -3.929947 2.298440 5.978140 -14.160946 0.000000 0.000000 0.000000 159.650522 -63.022374 168.029525 -40.334593 -16.813728 -35.061171 41.036367 0.465915 -0.024217 -26.661756 -5.387036 14.969087 1.164074 4.299595 1.358727 0.000000 0.000000 0.000000 152.247389 -66.326642 158.858889 10.947292 -2.630583 -0.830185 4.656214 -2.136720 -2.882048 0.356989 -1.646737 0.819077 0.000000 0.000000 0.000000 -2.696411 -3.870363 -1.941159 3.838901 16.182287 -3.478276 -15.307224 12.767812 -3.217152 0.000000 0.000000 0.000000 -2.669713 -4.358050 -1.758821 -1.017408 -9.237300 -5.797266 0.106506 0.232121 0.589726 -24.785107 -16.062284 -47.569997 -15.685535 -30.664124 -14.970687 0.000000 0.000000 0.000000 -4.310203 -4.586990 -2.001540 -5.738519 18.725665 3.644262 0.797469 -3.152854 -0.214972 -11.431442 -11.119872 60.970182 12.655017 37.440133 -3.460417 0.000000 0.000000 0.000000 
9.653506 29.846992 3.217442 0.000000 0.000000 0.000000 158.014582 -62.049427 165.117419 -55.722633 41.178603 56.402360 44.754292 -14.120141 -5.397297 1.254816 7.677484 -0.770024 1.303000 6.104794 -15.491858 0.000000 0.000000 0.000000 159.836754 -60.594372 168.250345 -41.433300 -15.718347 -34.940707 42.077435 1.433341 0.419563 -28.075728 -4.178625 15.044316 1.380008 4.584890 1.469071 0.000000 0.000000 0.000000 152.613446 -64.083840 159.365689 11.250446 -2.472430 -1.012095 4.031706 -1.232728 -3.083061 0.470842 -2.000098 0.765283 0.000000 0.000000 0.000000 -3.428320 -2.876337 -2.088062 3.283397 17.721945 -4.307969 -15.557679 14.096191 -3.153289 0.000000 0.000000 0.000000 -3.341647 -3.320920 -1.934832 -0.873375 -8.923817 -5.672221 0.439428 0.131506 0.284748 -25.213310 -16.069845 -47.966902 -16.983219 -33.183224 -15.339751 0.000000 0.000000 0.000000 -4.887389 -3.524194 -2.175072 -5.803558 18.630640 3.487117 0.863845 -3.098549 -0.483143 -10.739935 -11.311160 61.127912 14.489775 37.338896 -4.598740 0.000000 0.000000 0.000000 
9.400723 29.835617 2.952341 0.000000 0.000000 0.000000 158.155284 -60.657728 165.072094 -59.430446 39.239775 58.028024 45.621190 -16.591875 -4.536304 4.341381 5.673898 1.890086 0.723637 5.590583 -15.405627 0.000000 0.000000 0.000000 159.927787 -58.517960 168.235455 -41.489291 -14.387022 -34.633799 43.030356 2.193535 0.708141 -30.248107 -3.292363 14.805740 2.443488 4.718224 1.626698 0.000000 0.000000 0.000000 153.004201 -62.106862 159.808572 11.598844 -2.334708 -1.034353 3.451615 -0.401218 -3.338545 0.528420 -2.319860 0.786763 0.000000 0.000000 0.000000 -4.125939 -1.956023 -2.290374 2.875886 19.048954 -4.929993 -15.586227 15.184497 -2.985406 0.000000 0.000000 0.000000 -3.972355 -2.350506 -2.162455 -0.782504 -8.732672 -5.500844 0.985680 0.107482 0.059523 -25.605169 -14.770347 -48.439705 -18.301514 -35.502135 -15.794703 0.000000 0.000000 0.000000 -5.417204 -2.541202 -2.419549 -5.775578 18.512507 3.230926 0.853445 -3.194428 -0.711477 -9.819586 -11.474106 61.046161 15.879555 37.279835 -5.451702 0.000000 0.000000 0.000000 
